<svg xmlns="http://www.w3.org/2000/svg" width="70" height="70" fill="#700FA3" viewBox="0 0 84 84">
  <path d="M32.86 25.184h15.535c.898 0 1.627-.734 1.627-1.64s-.73-1.64-1.627-1.64H32.86c-.898 0-1.627.735-1.627 1.64s.728 1.64 1.627 1.64z"/>
  <path d="M24.51 22.383l-4.24 4.277-.98-.988c-.636-.64-1.666-.64-2.3 0a1.65 1.65 0 0 0 0 2.32l2.13 2.148c.318.32.734.48 1.15.48s.832-.16 1.15-.48l5.39-5.438a1.65 1.65 0 0 0 0-2.32c-.636-.64-1.665-.64-2.3 0z"/>
  <path d="M32.86 31.746h7.36c.898 0 1.627-.734 1.627-1.64s-.73-1.64-1.627-1.64h-7.36c-.898 0-1.627.735-1.627 1.64s.728 1.64 1.627 1.64z"/>
  <path d="M24.51 39.446l-4.24 4.277-.98-.988c-.636-.64-1.666-.64-2.3 0a1.65 1.65 0 0 0 0 2.32l2.13 2.148c.318.32.734.48 1.15.48s.832-.16 1.15-.48l5.39-5.438a1.65 1.65 0 0 0 0-2.32c-.636-.64-1.665-.64-2.3 0z"/>
  <path d="M32.86 42.247h15.535c.898 0 1.627-.734 1.627-1.64s-.73-1.64-1.627-1.64H32.86c-.898 0-1.627.735-1.627 1.64s.728 1.64 1.627 1.64z"/>
  <path d="M32.86 48.81h7.36c.898 0 1.627-.734 1.627-1.64s-.73-1.64-1.627-1.64h-7.36c-.898 0-1.627.734-1.627 1.64s.728 1.64 1.627 1.64z"/>
  <path d="M24.51 56.672l-4.24 4.277-.98-.988c-.636-.64-1.666-.64-2.3 0a1.65 1.65 0 0 0 0 2.32l2.13 2.148c.318.32.734.48 1.15.48s.832-.16 1.15-.48l5.39-5.438a1.65 1.65 0 0 0 0-2.32c-.636-.64-1.665-.64-2.3 0z"/>
  <path d="M32.86 59.473h15.535c.898 0 1.627-.735 1.627-1.64s-.73-1.64-1.627-1.64H32.86c-.898 0-1.627.734-1.627 1.64s.728 1.64 1.627 1.64zm0 6.562h7.36c.898 0 1.627-.734 1.627-1.64s-.73-1.64-1.627-1.64h-7.36c-.898 0-1.627.734-1.627 1.64s.728 1.64 1.627 1.64zM83.286 42c0-9.806-7.866-17.792-17.568-17.88V13.043c0-4.523-3.648-8.203-8.133-8.203H40.42C39.126 1.937 36.233 0 33.002 0h-.286c-3.23 0-6.124 1.937-7.42 4.84H8.133C3.65 4.84 0 8.52 0 13.043v62.754C0 80.32 3.65 84 8.133 84h49.45c4.485 0 8.133-3.68 8.133-8.203V59.88a17.57 17.57 0 0 0 11.463-4.39c.1-.065.172-.14.246-.22 3.596-3.275 5.86-8 5.86-13.27zm-3.253 0a14.61 14.61 0 0 1-3.225 9.177 12.78 12.78 0 0 0-6.276-5.85 6.74 6.74 0 0 0 1.701-4.483V39.57c0-3.714-2.995-6.735-6.678-6.735s-6.677 3.02-6.677 6.735v1.273c0 1.72.644 3.3 1.7 4.483a12.78 12.78 0 0 0-6.276 5.85A14.61 14.61 0 0 1 51.078 42c0-8.05 6.495-14.602 14.478-14.602S80.033 33.95 80.033 42zM56.777 53.603c1.404-3.593 4.878-6.025 8.778-6.025s7.375 2.422 8.78 6.025c-2.437 1.88-5.48 3-8.778 3a14.32 14.32 0 0 1-8.778-3zm5.355-12.76V39.57c0-1.904 1.536-3.454 3.424-3.454s3.424 1.55 3.424 3.454v1.273c0 1.904-1.537 3.453-3.424 3.453s-3.424-1.55-3.424-3.453zm.333-27.8V24.4a17.48 17.48 0 0 0-4.555 1.477v-11.5c0-.906-.728-1.64-1.627-1.64H47.5V9.3c0-.412-.056-.8-.16-1.2h10.246c2.7 0 4.88 2.208 4.88 4.922zM26.437 8.12a1.63 1.63 0 0 0 1.57-1.211c.575-2.136 2.5-3.63 4.7-3.63h.286c2.197 0 4.133 1.493 4.7 3.63a1.63 1.63 0 0 0 1.569 1.211h3.787c.65 0 1.18.534 1.18 1.2v3.404H21.472V9.3c0-.656.53-1.2 1.18-1.2h3.786zm31.148 72.6H8.133c-2.7 0-4.88-2.208-4.88-4.922V13.043c0-2.714 2.2-4.922 4.88-4.922H18.38a4.49 4.49 0 0 0-.16 1.19v3.404H9.435c-.898 0-1.627.734-1.627 1.64v60.13c0 .906.728 1.64 1.627 1.64h16.917c.898 0 1.627-.734 1.627-1.64s-.728-1.64-1.627-1.64H11.06v-56.85h43.595v11.908c-3.404 2.683-5.815 6.6-6.575 11.06H32.86c-.9 0-1.627.735-1.627 1.64s.728 1.64 1.627 1.64h14.97c.07 5.162 2.317 9.803 5.86 13.027a1.51 1.51 0 0 0 .242.216c.237.2.48.4.73.607v16.748h-15.3c-.898 0-1.627.734-1.627 1.64s.728 1.64 1.627 1.64H56.3c.898 0 1.627-.734 1.627-1.64v-16.35a17.48 17.48 0 0 0 4.555 1.477v16.186c0 2.714-2.2 4.922-4.88 4.922z"/>
</svg>
