<svg xmlns="http://www.w3.org/2000/svg" width="70" height="70" fill="#700FA3" viewBox="0 0 84 84">
  <path d="M57.58 75.012a1.23 1.23 0 0 0-1.23 1.23v5.297h-8.8v-2.084a1.23 1.23 0 1 0-2.461 0v2.084h-7.203l1.996-1.996a8.02 8.02 0 0 0 0-11.417c-2.83-2.83-7.314-3.108-10.467-.8a8.13 8.13 0 0 0-10.467.8 8.02 8.02 0 0 0 0 11.417l1.996 1.996H13.73v-2.084a1.231 1.231 0 1 0-2.461 0v2.084H2.46v-5.297a1.23 1.23 0 1 0-2.461 0v6.527A1.23 1.23 0 0 0 1.229 84h56.35a1.23 1.23 0 0 0 1.23-1.231v-6.527a1.23 1.23 0 0 0-1.23-1.23zm-36.9 2.792c-1.06-1.06-1.644-2.47-1.644-3.968s.584-2.908 1.644-3.968a5.64 5.64 0 0 1 7.871-.062 1.23 1.23 0 0 0 1.712 0c2.187-2.12 5.718-2.1 7.87.062 1.06 1.06 1.644 2.47 1.644 3.968s-.584 2.908-1.644 3.968l-3.736 3.736h-9.982l-3.736-3.736zm28.604-26.03l-12.848-3.426V43.08c4.156-2.317 7.06-6.62 7.42-11.615h.465c2.872 0 5.208-2.336 5.208-5.208 0-1.33-.502-2.545-1.326-3.467V11.837a7.87 7.87 0 0 0-7.86-7.86h-.795C39.267 1.738 37.353 0 35.04 0h-9.944a14.51 14.51 0 0 0-14.489 14.489v8.3c-.824.922-1.326 2.136-1.326 3.467 0 2.872 2.336 5.208 5.208 5.208h.465c.36 4.996 3.264 9.298 7.42 11.615v5.268l-12.85 3.426A12.85 12.85 0 0 0 0 64.171v6.314a1.23 1.23 0 1 0 2.461 0V64.17c0-4.7 3.166-8.812 7.698-10.02l7.267-1.938c1.326 5.453 6.248 9.413 11.978 9.413s10.652-3.96 11.978-9.413l7.267 1.938c4.533 1.2 7.7 5.33 7.7 10.02v6.313a1.231 1.231 0 1 0 2.461 0V64.17a12.85 12.85 0 0 0-9.525-12.398zm-4.964-22.77h-.427V23.5h.427a2.75 2.75 0 0 1 2.747 2.747 2.75 2.75 0 0 1-2.747 2.747zm1.42-17.165v9.4a5.19 5.19 0 0 0-1.421-.199H43.17l-3.588-3.588V6.438h.758a5.41 5.41 0 0 1 5.4 5.4zm-34 14.42a2.75 2.75 0 0 1 2.747-2.747h.427v5.494h-.427a2.75 2.75 0 0 1-2.747-2.747zm5.635 4.158V23.5H21.6a1.231 1.231 0 1 0 0-2.461h-7.1a5.19 5.19 0 0 0-1.421.199V14.5c0-6.632 5.396-12.028 12.028-12.028h9.944c1.15 0 2.084.935 2.084 2.084V17.46l-2.007 2.007a5.36 5.36 0 0 1-3.817 1.58h-3.96a1.23 1.23 0 1 0 0 2.461h3.96a7.81 7.81 0 0 0 5.558-2.302l1.497-1.497 3.078 3.078v7.626c0 6.632-5.396 12.028-12.028 12.028s-12.028-5.396-12.028-12.028zm12.028 14.5a14.43 14.43 0 0 0 4.57-.739v5.128c0 2.52-2.05 4.57-4.57 4.57s-4.57-2.05-4.57-4.57v-5.128a14.43 14.43 0 0 0 4.57.739zm0 14.263a9.89 9.89 0 0 1-9.601-7.587l2.745-.732c.7 3.13 3.513 5.476 6.855 5.476s6.146-2.345 6.856-5.476l2.745.732a9.89 9.89 0 0 1-9.601 7.587zm38.45-56.4c-8.903 0-16.146 7.243-16.146 16.146a16.21 16.21 0 0 0 4.485 11.166l-1.885 4.06a1.23 1.23 0 0 0 1.634 1.635l4.942-2.294a16.2 1.23 0 0 0 6.97 1.58A16.17 16.17 0 0 0 84 18.916C84 10.012 76.756 2.77 67.853 2.77zm0 29.83a13.71 13.71 0 0 1-6.375-1.573A1.23 1.23 0 0 0 60.386 31l-2.43 1.128.833-1.795a1.23 1.23 0 0 0-.276-1.417 13.55 13.55 0 0 1-4.345-10.001c0-7.546 6.14-13.685 13.685-13.685S81.54 11.37 81.54 18.916 75.4 32.6 67.853 32.6zm8.31-20.046c-2.242-2.242-5.767-2.505-8.308-.77-2.54-1.734-6.066-1.47-8.308.77a6.49 6.49 0 0 0-1.914 4.62 6.49 6.49 0 0 0 1.914 4.62l7.438 7.438c.24.24.555.36.87.36s.63-.12.87-.36l7.438-7.438a6.54 6.54 0 0 0 0-9.24zm-1.74 7.5l-6.568 6.568-6.568-6.568c-.77-.77-1.193-1.792-1.193-2.88a4.05 4.05 0 0 1 1.193-2.88A4.06 4.06 0 0 1 67 14.249a1.23 1.23 0 0 0 1.713 0 4.09 4.09 0 0 1 5.712.045 4.08 4.08 0 0 1 0 5.76z"/>
</svg>
